<svg fill="none" height="24" viewBox="0 0 21 24" width="21" xmlns="http://www.w3.org/2000/svg">
    <path
        d="M17.2047 12.7531C17.1737 9.713 19.7417 8.2549 19.8565 8.18124C18.4133 6.11922 16.1648 5.83628 15.3646 5.80409C13.4525 5.61432 11.6319 6.90461 10.6619 6.90461C9.69394 6.90461 8.19529 5.83189 6.60978 5.85921C4.52405 5.88946 2.60156 7.04462 1.52824 8.86907C-0.637863 12.5409 0.97411 17.9826 3.0848 20.9627C4.11668 22.4193 5.34726 24.0584 6.96172 23.9984C8.51779 23.9384 9.10486 23.0149 10.9859 23.0149C12.867 23.0149 13.3951 23.9984 15.0411 23.9676C16.7144 23.9379 17.7753 22.4832 18.7987 21.0207C19.9833 19.3285 20.471 17.6899 20.5 17.6069C20.4636 17.5904 17.2381 16.383 17.2047 12.7531Z"
        fill="black" />
    <path
        d="M14.1121 3.83184C14.9682 2.8162 15.5483 1.40493 15.3906 0C14.155 0.0487822 12.6594 0.802467 11.7723 1.81714C10.9775 2.71766 10.2826 4.15136 10.4688 5.53092C11.8471 5.63532 13.2529 4.84554 14.1121 3.83184Z"
        fill="black" />
</svg>
