<svg fill="none" height="24" viewBox="0 0 13 24" width="13" xmlns="http://www.w3.org/2000/svg">
    <g clip-path="url(#clip0_51_295)">
        <path
            d="M8.79524 0H12.5921C12.8959 0.119063 12.9906 0.34734 12.9873 0.663746C12.9765 1.77328 12.984 2.88234 12.9826 3.99187C12.9826 4.48968 12.8237 4.64109 12.3203 4.64812C11.5313 4.65562 10.742 4.64813 9.95494 4.68985C9.67657 4.71275 9.40755 4.80109 9.16979 4.94766C8.78307 5.18203 8.71416 5.60391 8.70619 6.01688C8.68978 6.85266 8.69774 7.68844 8.6968 8.52422C8.70028 8.55978 8.7064 8.59504 8.71509 8.62969H8.97572C10.0538 8.62969 11.132 8.62969 12.2101 8.62969C12.6601 8.62969 12.8349 8.80406 12.8354 9.25265C12.8354 10.4795 12.8354 11.7059 12.8354 12.9319C12.8354 13.3861 12.6671 13.552 12.212 13.5525C11.1263 13.5525 10.0406 13.5525 8.95461 13.5525H8.69634V13.8937C8.69634 17.0341 8.69743 20.1747 8.69962 23.3156C8.69962 23.6231 8.62367 23.8664 8.32789 24.0028H4.01539C3.72102 23.8852 3.62915 23.6634 3.63009 23.3545C3.63634 20.1914 3.63759 17.028 3.63384 13.8642V13.5539H3.34321C2.44509 13.5539 1.54696 13.5539 0.648837 13.5539C0.180087 13.5539 0.0160352 13.3894 0.0155664 12.9188C0.0136914 11.7 0.0136914 10.4813 0.0155664 9.26251C0.0155664 8.79797 0.187593 8.63016 0.655406 8.62969C1.56166 8.62969 2.46791 8.62969 3.37416 8.62969H3.6343C3.6343 7.75032 3.61603 6.90703 3.64087 6.06515C3.65681 5.50546 3.67836 4.93593 3.79367 4.39125C4.27461 2.11828 5.64149 0.682035 7.92524 0.156567C8.21071 0.0881291 8.50462 0.050625 8.79524 0Z"
            fill="#3266CE" />
    </g>
    <defs>
        <clipPath id="clip0_51_295">
            <rect fill="white" height="24" transform="translate(0.0126953)" width="12.9745" />
        </clipPath>
    </defs>
</svg>
